# Blender 4.2.3 LTS
# www.blender.org
mtllib Weapon.mtl
o 立方体
v 0.447087 -0.117232 0.407154
v 0.447087 0.117232 0.407154
v 0.274448 -0.117232 0.612898
v 0.274448 0.117232 0.612898
v -0.359138 -0.117232 -0.269348
v -0.359138 0.117232 -0.269348
v -0.531777 -0.117232 -0.063605
v -0.531777 0.117232 -0.063605
v 0.721627 -0.117232 0.812825
v 0.721627 0.117232 0.812825
v -0.445457 -0.117232 -0.166477
v -0.445457 0.117232 -0.166477
v -0.893335 0.117232 -0.366988
v -0.893335 -0.117232 -0.366988
v -0.807016 -0.117232 -0.469860
v -0.807016 0.117232 -0.469860
v -0.720696 0.117232 -0.572732
v -0.720696 -0.117232 -0.572732
vn -0.4082 -0.0000 0.9129
vn -0.6428 -0.0000 0.7660
vn 0.6428 -0.0000 -0.7660
vn -0.0000 -1.0000 -0.0000
vn -0.0000 1.0000 -0.0000
vn 0.8282 -0.0000 -0.5605
vn -0.7660 -0.0000 -0.6428
vt 0.625000 0.125000
vt 0.375000 0.250000
vt 0.375000 0.125000
vt 0.625000 0.250000
vt 0.375000 0.500000
vt 0.625000 0.750000
vt 0.375000 1.000000
vt 0.375000 0.750000
vt 0.375000 0.625000
vt 0.125000 0.750000
vt 0.125000 0.625000
vt 0.625000 0.625000
vt 0.875000 0.750000
vt 0.875000 0.500000
vt 0.625000 0.500000
vt 0.125000 0.500000
vt 0.625000 0.000000
vt 0.375000 0.000000
vt 0.625000 1.000000
vt 0.875000 0.625000
s 0
usemtl マテリアル.010
f 10/1/1 3/2/1 9/3/1
f 4/4/2 7/5/2 3/2/2
f 6/6/3 1/7/3 5/8/3
f 11/9/4 1/10/4 9/11/4
f 12/12/5 2/13/5 6/6/5
f 4/14/5 12/12/5 8/15/5
f 3/16/4 11/9/4 9/11/4
f 2/17/6 9/3/6 1/18/6
f 10/1/1 4/4/1 3/2/1
f 4/4/2 8/15/2 7/5/2
f 6/6/3 2/19/3 1/7/3
f 11/9/4 5/8/4 1/10/4
f 12/12/5 10/20/5 2/13/5
f 4/14/5 10/20/5 12/12/5
f 3/16/4 7/5/4 11/9/4
f 2/17/6 10/1/6 9/3/6
usemtl マテリアル.011
f 8/15/2 14/5/2 7/5/2
f 12/12/5 17/6/5 16/12/5
f 16/12/7 18/8/7 15/9/7
f 13/15/7 15/9/7 14/5/7
f 12/12/5 13/15/5 8/15/5
f 5/8/3 17/6/3 6/6/3
f 11/9/4 14/5/4 15/9/4
f 11/9/4 18/8/4 5/8/4
f 8/15/2 13/15/2 14/5/2
f 12/12/5 6/6/5 17/6/5
f 16/12/7 17/6/7 18/8/7
f 13/15/7 16/12/7 15/9/7
f 12/12/5 16/12/5 13/15/5
f 5/8/3 18/8/3 17/6/3
f 11/9/4 7/5/4 14/5/4
f 11/9/4 15/9/4 18/8/4
o 立方体.001
v 0.016105 -0.136335 -0.482041
v 0.016105 0.136335 -0.482041
v -0.676078 -0.136335 0.342871
v -0.676078 0.136335 0.342871
v -0.115469 -0.136335 -0.592445
v -0.115469 0.136335 -0.592445
v -0.807652 -0.136335 0.232466
v -0.807652 0.136335 0.232466
vn 0.7660 -0.0000 0.6428
vn -0.6428 -0.0000 0.7660
vn -0.7660 -0.0000 -0.6428
vn 0.6428 -0.0000 -0.7660
vn -0.0000 -1.0000 -0.0000
vn -0.0000 1.0000 -0.0000
vt 0.625000 0.000000
vt 0.375000 0.250000
vt 0.375000 0.000000
vt 0.625000 0.250000
vt 0.375000 0.500000
vt 0.625000 0.500000
vt 0.375000 0.750000
vt 0.625000 0.750000
vt 0.375000 1.000000
vt 0.125000 0.750000
vt 0.125000 0.500000
vt 0.875000 0.750000
vt 0.625000 1.000000
vt 0.875000 0.500000
s 0
usemtl マテリアル.012
f 20/21/8 21/22/8 19/23/8
f 22/24/9 25/25/9 21/22/9
f 26/26/10 23/27/10 25/25/10
f 24/28/11 19/29/11 23/27/11
f 25/25/12 19/30/12 21/31/12
f 26/26/13 20/32/13 24/28/13
f 20/21/8 22/24/8 21/22/8
f 22/24/9 26/26/9 25/25/9
f 26/26/10 24/28/10 23/27/10
f 24/28/11 20/33/11 19/29/11
f 25/25/12 23/27/12 19/30/12
f 26/26/13 22/34/13 20/32/13
