# Blender 4.2.3 LTS
# www.blender.org
mtllib IronballTrap.mtl
o 円柱
v 0.000000 -0.155612 -0.574133
v 0.000000 0.571441 -0.518222
v 0.112008 -0.155612 -0.563101
v 0.101100 0.571441 -0.508264
v 0.219711 -0.155612 -0.530430
v 0.198315 0.571441 -0.478774
v 0.318971 -0.155612 -0.477374
v 0.287909 0.571441 -0.430885
v 0.405973 -0.155612 -0.405973
v 0.366438 0.571441 -0.366438
v 0.477374 -0.155612 -0.318971
v 0.430885 0.571441 -0.287909
v 0.530430 -0.155612 -0.219711
v 0.478774 0.571441 -0.198315
v 0.563101 -0.155611 -0.112008
v 0.508264 0.571441 -0.101100
v 0.574133 -0.155611 0.000000
v 0.518222 0.571441 -0.000000
v 0.563101 -0.155611 0.112008
v 0.508264 0.571441 0.101100
v 0.530430 -0.155611 0.219711
v 0.478774 0.571442 0.198315
v 0.477374 -0.155611 0.318971
v 0.430885 0.571442 0.287909
v 0.405973 -0.155611 0.405973
v 0.366438 0.571442 0.366438
v 0.318971 -0.155611 0.477374
v 0.287909 0.571442 0.430885
v 0.219711 -0.155611 0.530430
v 0.198315 0.571442 0.478774
v 0.112008 -0.155611 0.563101
v 0.101100 0.571442 0.508264
v 0.000000 -0.155611 0.574133
v 0.000000 0.571442 0.518222
v -0.112008 -0.155611 0.563101
v -0.101100 0.571442 0.508264
v -0.219711 -0.155611 0.530430
v -0.198315 0.571442 0.478774
v -0.318971 -0.155611 0.477374
v -0.287909 0.571442 0.430885
v -0.405973 -0.155611 0.405973
v -0.366438 0.571442 0.366438
v -0.477374 -0.155611 0.318971
v -0.430885 0.571442 0.287909
v -0.530430 -0.155611 0.219711
v -0.478774 0.571442 0.198315
v -0.563101 -0.155611 0.112008
v -0.508264 0.571441 0.101100
v -0.574133 -0.155611 0.000000
v -0.518222 0.571441 -0.000000
v -0.563101 -0.155611 -0.112008
v -0.508264 0.571441 -0.101100
v -0.530430 -0.155612 -0.219711
v -0.478774 0.571441 -0.198315
v -0.477374 -0.155612 -0.318971
v -0.430885 0.571441 -0.287909
v -0.405973 -0.155612 -0.405973
v -0.366438 0.571441 -0.366438
v -0.318971 -0.155612 -0.477374
v -0.287909 0.571441 -0.430885
v -0.219711 -0.155612 -0.530430
v -0.198315 0.571441 -0.478774
v -0.112008 -0.155612 -0.563101
v -0.101100 0.571441 -0.508264
v 0.112008 0.571441 -0.563101
v 0.000000 0.571441 -0.574133
v 0.219711 0.571441 -0.530430
v 0.318971 0.571441 -0.477374
v 0.405973 0.571441 -0.405973
v 0.477374 0.571441 -0.318971
v 0.530430 0.571441 -0.219711
v 0.563101 0.571441 -0.112008
v 0.574133 0.571441 -0.000000
v 0.563101 0.571441 0.112008
v 0.530430 0.571442 0.219711
v 0.477374 0.571442 0.318971
v 0.405973 0.571442 0.405973
v 0.318971 0.571442 0.477374
v 0.219711 0.571442 0.530430
v 0.112008 0.571442 0.563101
v 0.000000 0.571442 0.574133
v -0.112008 0.571442 0.563101
v -0.219711 0.571442 0.530430
v -0.318971 0.571442 0.477374
v -0.405973 0.571442 0.405973
v -0.477374 0.571442 0.318971
v -0.530430 0.571442 0.219711
v -0.563101 0.571441 0.112008
v -0.574133 0.571441 -0.000000
v -0.563101 0.571441 -0.112008
v -0.530430 0.571441 -0.219711
v -0.477374 0.571441 -0.318971
v -0.405973 0.571441 -0.405973
v -0.318971 0.571441 -0.477374
v -0.219711 0.571441 -0.530430
v -0.112008 0.571441 -0.563101
vn 0.0980 -0.0000 -0.9952
vn 0.2903 -0.0000 -0.9569
vn 0.4714 -0.0000 -0.8819
vn 0.6344 -0.0000 -0.7730
vn 0.7730 -0.0000 -0.6344
vn 0.8819 -0.0000 -0.4714
vn 0.9569 -0.0000 -0.2903
vn 0.9952 -0.0000 -0.0980
vn 0.9952 -0.0000 0.0980
vn 0.9569 -0.0000 0.2903
vn 0.8819 -0.0000 0.4714
vn 0.7730 -0.0000 0.6344
vn 0.6344 -0.0000 0.7730
vn 0.4714 -0.0000 0.8819
vn 0.2903 -0.0000 0.9569
vn 0.0980 -0.0000 0.9952
vn -0.0980 -0.0000 0.9952
vn -0.2903 -0.0000 0.9569
vn -0.4714 -0.0000 0.8819
vn -0.6344 -0.0000 0.7730
vn -0.7730 -0.0000 0.6344
vn -0.8819 -0.0000 0.4714
vn -0.9569 -0.0000 0.2903
vn -0.9952 -0.0000 0.0980
vn -0.9952 -0.0000 -0.0980
vn -0.9569 -0.0000 -0.2903
vn -0.8819 -0.0000 -0.4714
vn -0.7730 -0.0000 -0.6344
vn -0.6344 -0.0000 -0.7730
vn -0.4714 -0.0000 -0.8819
vn -0.2903 -0.0000 -0.9569
vn -0.0980 -0.0000 -0.9952
vn -0.0000 -1.0000 -0.0000
vn -0.0000 1.0000 -0.0000
vn -0.0001 1.0000 -0.0000
vn 0.0001 1.0000 -0.0000
vt 1.000000 1.000000
vt 0.968750 0.500000
vt 1.000000 0.500000
vt 0.968750 1.000000
vt 0.937500 0.500000
vt 0.937500 1.000000
vt 0.906250 0.500000
vt 0.906250 1.000000
vt 0.875000 0.500000
vt 0.875000 1.000000
vt 0.843750 0.500000
vt 0.843750 1.000000
vt 0.812500 0.500000
vt 0.812500 1.000000
vt 0.781250 0.500000
vt 0.781250 1.000000
vt 0.750000 0.500000
vt 0.750000 1.000000
vt 0.718750 0.500000
vt 0.718750 1.000000
vt 0.687500 0.500000
vt 0.687500 1.000000
vt 0.656250 0.500000
vt 0.656250 1.000000
vt 0.625000 0.500000
vt 0.625000 1.000000
vt 0.593750 0.500000
vt 0.593750 1.000000
vt 0.562500 0.500000
vt 0.562500 1.000000
vt 0.531250 0.500000
vt 0.531250 1.000000
vt 0.500000 0.500000
vt 0.500000 1.000000
vt 0.468750 0.500000
vt 0.468750 1.000000
vt 0.437500 0.500000
vt 0.437500 1.000000
vt 0.406250 0.500000
vt 0.406250 1.000000
vt 0.375000 0.500000
vt 0.375000 1.000000
vt 0.343750 0.500000
vt 0.343750 1.000000
vt 0.312500 0.500000
vt 0.312500 1.000000
vt 0.281250 0.500000
vt 0.281250 1.000000
vt 0.250000 0.500000
vt 0.250000 1.000000
vt 0.218750 0.500000
vt 0.218750 1.000000
vt 0.187500 0.500000
vt 0.187500 1.000000
vt 0.156250 0.500000
vt 0.156250 1.000000
vt 0.125000 0.500000
vt 0.125000 1.000000
vt 0.093750 0.500000
vt 0.093750 1.000000
vt 0.062500 0.500000
vt 0.062500 1.000000
vt 0.031250 0.500000
vt 0.031250 1.000000
vt 0.000000 0.500000
vt 0.796822 0.014612
vt 0.514612 0.203178
vt 0.703178 0.485388
vt 0.000000 1.000000
vt 0.750000 0.490000
vt 0.796822 0.485388
vt 0.841844 0.471731
vt 0.883337 0.449553
vt 0.919706 0.419706
vt 0.949553 0.383337
vt 0.971731 0.341844
vt 0.985388 0.296822
vt 0.990000 0.250000
vt 0.985388 0.203178
vt 0.971731 0.158156
vt 0.949553 0.116663
vt 0.919706 0.080294
vt 0.883337 0.050447
vt 0.841844 0.028269
vt 0.750000 0.010000
vt 0.703178 0.014612
vt 0.658156 0.028269
vt 0.616663 0.050447
vt 0.580294 0.080294
vt 0.550447 0.116663
vt 0.528269 0.158156
vt 0.510000 0.250000
vt 0.514612 0.296822
vt 0.528269 0.341844
vt 0.550447 0.383337
vt 0.580294 0.419706
vt 0.616663 0.449553
vt 0.658156 0.471731
vt 0.167100 0.049862
vt 0.450138 0.167100
vt 0.332900 0.450138
vt 0.292262 0.462466
vt 0.250000 0.466628
vt 0.207738 0.462466
vt 0.167100 0.450138
vt 0.129648 0.430120
vt 0.096821 0.403179
vt 0.069880 0.370352
vt 0.049862 0.332900
vt 0.037534 0.292262
vt 0.033372 0.250000
vt 0.037534 0.207738
vt 0.049862 0.167100
vt 0.069880 0.129648
vt 0.096821 0.096821
vt 0.129648 0.069880
vt 0.207738 0.037534
vt 0.250000 0.033372
vt 0.292262 0.037534
vt 0.332900 0.049862
vt 0.370352 0.069880
vt 0.403179 0.096821
vt 0.430120 0.129648
vt 0.462466 0.207738
vt 0.466628 0.250000
vt 0.462466 0.292262
vt 0.450138 0.332900
vt 0.430120 0.370352
vt 0.403179 0.403179
vt 0.370352 0.430120
vt 0.296822 0.485388
vt 0.250000 0.490000
vt 0.383337 0.449553
vt 0.341844 0.471731
vt 0.419706 0.419706
vt 0.449553 0.383337
vt 0.471731 0.341844
vt 0.485388 0.296822
vt 0.485388 0.203178
vt 0.490000 0.250000
vt 0.449553 0.116663
vt 0.471731 0.158156
vt 0.419706 0.080294
vt 0.383337 0.050447
vt 0.341844 0.028269
vt 0.296822 0.014612
vt 0.203178 0.014612
vt 0.250000 0.010000
vt 0.116663 0.050447
vt 0.158156 0.028269
vt 0.080294 0.080294
vt 0.050447 0.116663
vt 0.028269 0.158156
vt 0.014612 0.203178
vt 0.014612 0.296822
vt 0.010000 0.250000
vt 0.050447 0.383337
vt 0.028269 0.341844
vt 0.080294 0.419706
vt 0.116663 0.449553
vt 0.158156 0.471731
vt 0.203178 0.485388
s 0
usemtl マテリアル.013
f 66/1/1 3/2/1 1/3/1
f 65/4/2 5/5/2 3/2/2
f 67/6/3 7/7/3 5/5/3
f 68/8/4 9/9/4 7/7/4
f 69/10/5 11/11/5 9/9/5
f 70/12/6 13/13/6 11/11/6
f 71/14/7 15/15/7 13/13/7
f 72/16/8 17/17/8 15/15/8
f 73/18/9 19/19/9 17/17/9
f 74/20/10 21/21/10 19/19/10
f 75/22/11 23/23/11 21/21/11
f 76/24/12 25/25/12 23/23/12
f 77/26/13 27/27/13 25/25/13
f 78/28/14 29/29/14 27/27/14
f 79/30/15 31/31/15 29/29/15
f 80/32/16 33/33/16 31/31/16
f 81/34/17 35/35/17 33/33/17
f 82/36/18 37/37/18 35/35/18
f 83/38/19 39/39/19 37/37/19
f 84/40/20 41/41/20 39/39/20
f 85/42/21 43/43/21 41/41/21
f 86/44/22 45/45/22 43/43/22
f 87/46/23 47/47/23 45/45/23
f 88/48/24 49/49/24 47/47/24
f 89/50/25 51/51/25 49/49/25
f 90/52/26 53/53/26 51/51/26
f 91/54/27 55/55/27 53/53/27
f 92/56/28 57/57/28 55/55/28
f 93/58/29 59/59/29 57/57/29
f 94/60/30 61/61/30 59/59/30
f 95/62/31 63/63/31 61/61/31
f 96/64/32 1/65/32 63/63/32
f 31/66/33 47/67/33 63/68/33
f 66/1/1 65/4/1 3/2/1
f 65/4/2 67/6/2 5/5/2
f 67/6/3 68/8/3 7/7/3
f 68/8/4 69/10/4 9/9/4
f 69/10/5 70/12/5 11/11/5
f 70/12/6 71/14/6 13/13/6
f 71/14/7 72/16/7 15/15/7
f 72/16/8 73/18/8 17/17/8
f 73/18/9 74/20/9 19/19/9
f 74/20/10 75/22/10 21/21/10
f 75/22/11 76/24/11 23/23/11
f 76/24/12 77/26/12 25/25/12
f 77/26/13 78/28/13 27/27/13
f 78/28/14 79/30/14 29/29/14
f 79/30/15 80/32/15 31/31/15
f 80/32/16 81/34/16 33/33/16
f 81/34/17 82/36/17 35/35/17
f 82/36/18 83/38/18 37/37/18
f 83/38/19 84/40/19 39/39/19
f 84/40/20 85/42/20 41/41/20
f 85/42/21 86/44/21 43/43/21
f 86/44/22 87/46/22 45/45/22
f 87/46/23 88/48/23 47/47/23
f 88/48/24 89/50/24 49/49/24
f 89/50/25 90/52/25 51/51/25
f 90/52/26 91/54/26 53/53/26
f 91/54/27 92/56/27 55/55/27
f 92/56/28 93/58/28 57/57/28
f 93/58/29 94/60/29 59/59/29
f 94/60/30 95/62/30 61/61/30
f 95/62/31 96/64/31 63/63/31
f 96/64/32 66/69/32 1/65/32
f 63/68/33 1/70/33 3/71/33
f 3/71/33 5/72/33 7/73/33
f 7/73/33 9/74/33 11/75/33
f 11/75/33 13/76/33 15/77/33
f 15/77/33 17/78/33 19/79/33
f 19/79/33 21/80/33 23/81/33
f 23/81/33 25/82/33 27/83/33
f 27/83/33 29/84/33 31/66/33
f 31/66/33 33/85/33 35/86/33
f 35/86/33 37/87/33 39/88/33
f 39/88/33 41/89/33 43/90/33
f 43/90/33 45/91/33 47/67/33
f 47/67/33 49/92/33 51/93/33
f 51/93/33 53/94/33 55/95/33
f 55/95/33 57/96/33 59/97/33
f 59/97/33 61/98/33 63/68/33
f 63/68/33 3/71/33 7/73/33
f 7/73/33 11/75/33 15/77/33
f 15/77/33 19/79/33 23/81/33
f 23/81/33 27/83/33 31/66/33
f 31/66/33 35/86/33 39/88/33
f 39/88/33 43/90/33 47/67/33
f 47/67/33 51/93/33 55/95/33
f 55/95/33 59/97/33 63/68/33
f 63/68/33 7/73/33 15/77/33
f 15/77/33 23/81/33 31/66/33
f 31/66/33 39/88/33 47/67/33
f 47/67/33 55/95/33 63/68/33
f 63/68/33 15/77/33 31/66/33
usemtl マテリアル.014
f 38/99/34 22/100/34 6/101/34
f 6/101/34 4/102/34 2/103/34
f 2/103/34 64/104/34 62/105/34
f 62/105/34 60/106/34 58/107/34
f 58/107/34 56/108/34 54/109/34
f 54/109/34 52/110/34 50/111/34
f 50/111/35 48/112/35 46/113/35
f 46/113/34 44/114/34 42/115/34
f 42/115/34 40/116/34 38/99/34
f 38/99/34 36/117/34 34/118/34
f 34/118/34 32/119/34 30/120/34
f 30/120/34 28/121/34 26/122/34
f 26/122/34 24/123/34 22/100/34
f 22/100/36 20/124/36 18/125/36
f 18/125/34 16/126/34 14/127/34
f 14/127/34 12/128/34 10/129/34
f 10/129/34 8/130/34 6/101/34
f 6/101/34 2/103/34 62/105/34
f 62/105/34 58/107/34 54/109/34
f 54/109/34 50/111/34 46/113/34
f 46/113/34 42/115/34 38/99/34
f 38/99/34 34/118/34 30/120/34
f 30/120/34 26/122/34 22/100/34
f 22/100/34 18/125/34 14/127/34
f 14/127/34 10/129/34 6/101/34
f 6/101/34 62/105/34 54/109/34
f 54/109/34 46/113/34 38/99/34
f 38/99/34 30/120/34 22/100/34
f 22/100/34 14/127/34 6/101/34
f 6/101/34 54/109/34 38/99/34
usemtl マテリアル.015
f 2/103/34 65/131/34 66/132/34
f 6/101/34 65/131/34 4/102/34
f 6/101/34 68/133/34 67/134/34
f 10/129/34 68/133/34 8/130/34
f 12/128/34 69/135/34 10/129/34
f 14/127/34 70/136/34 12/128/34
f 16/126/34 71/137/34 14/127/34
f 18/125/34 72/138/34 16/126/34
f 18/125/34 74/139/34 73/140/34
f 22/100/34 74/139/34 20/124/34
f 22/100/34 76/141/34 75/142/34
f 26/122/34 76/141/34 24/123/34
f 28/121/34 77/143/34 26/122/34
f 30/120/34 78/144/34 28/121/34
f 32/119/34 79/145/34 30/120/34
f 34/118/34 80/146/34 32/119/34
f 34/118/34 82/147/34 81/148/34
f 38/99/34 82/147/34 36/117/34
f 38/99/34 84/149/34 83/150/34
f 42/115/34 84/149/34 40/116/34
f 44/114/34 85/151/34 42/115/34
f 46/113/34 86/152/34 44/114/34
f 48/112/34 87/153/34 46/113/34
f 50/111/34 88/154/34 48/112/34
f 50/111/34 90/155/34 89/156/34
f 54/109/34 90/155/34 52/110/34
f 54/109/34 92/157/34 91/158/34
f 58/107/34 92/157/34 56/108/34
f 60/106/34 93/159/34 58/107/34
f 62/105/34 94/160/34 60/106/34
f 64/104/34 95/161/34 62/105/34
f 2/103/34 96/162/34 64/104/34
f 2/103/34 4/102/34 65/131/34
f 6/101/34 67/134/34 65/131/34
f 6/101/34 8/130/34 68/133/34
f 10/129/34 69/135/34 68/133/34
f 12/128/34 70/136/34 69/135/34
f 14/127/34 71/137/34 70/136/34
f 16/126/34 72/138/34 71/137/34
f 18/125/34 73/140/34 72/138/34
f 18/125/34 20/124/34 74/139/34
f 22/100/34 75/142/34 74/139/34
f 22/100/34 24/123/34 76/141/34
f 26/122/34 77/143/34 76/141/34
f 28/121/34 78/144/34 77/143/34
f 30/120/34 79/145/34 78/144/34
f 32/119/34 80/146/34 79/145/34
f 34/118/34 81/148/34 80/146/34
f 34/118/34 36/117/34 82/147/34
f 38/99/34 83/150/34 82/147/34
f 38/99/34 40/116/34 84/149/34
f 42/115/34 85/151/34 84/149/34
f 44/114/34 86/152/34 85/151/34
f 46/113/34 87/153/34 86/152/34
f 48/112/34 88/154/34 87/153/34
f 50/111/34 89/156/34 88/154/34
f 50/111/34 52/110/34 90/155/34
f 54/109/34 91/158/34 90/155/34
f 54/109/34 56/108/34 92/157/34
f 58/107/34 93/159/34 92/157/34
f 60/106/34 94/160/34 93/159/34
f 62/105/34 95/161/34 94/160/34
f 64/104/34 96/162/34 95/161/34
f 2/103/34 66/132/34 96/162/34
