# Blender 4.2.3 LTS
# www.blender.org
mtllib MudTrap.mtl
o 円柱.001
v 0.000000 0.432174 -0.703934
v 0.000000 0.807309 -0.503198
v 0.137331 0.432174 -0.690408
v 0.098169 0.807309 -0.493529
v 0.269384 0.432174 -0.650350
v 0.192566 0.807309 -0.464894
v 0.391085 0.432174 -0.585300
v 0.279562 0.807309 -0.418394
v 0.497757 0.432174 -0.497757
v 0.355815 0.807309 -0.355815
v 0.585300 0.432174 -0.391085
v 0.418394 0.807309 -0.279562
v 0.650350 0.432174 -0.269384
v 0.464894 0.807309 -0.192566
v 0.690408 0.432174 -0.137331
v 0.493529 0.807309 -0.098169
v 0.703934 0.432174 0.000000
v 0.503198 0.807309 -0.000000
v 0.690408 0.432174 0.137331
v 0.493529 0.807309 0.098169
v 0.650350 0.432174 0.269384
v 0.464894 0.807309 0.192566
v 0.585300 0.432174 0.391085
v 0.418394 0.807309 0.279562
v 0.497757 0.432174 0.497757
v 0.355815 0.807309 0.355815
v 0.391085 0.432174 0.585300
v 0.279562 0.807309 0.418394
v 0.269384 0.432174 0.650350
v 0.192566 0.807309 0.464894
v 0.137331 0.432174 0.690408
v 0.098169 0.807309 0.493529
v 0.000000 0.432174 0.703934
v 0.000000 0.807309 0.503198
v -0.137331 0.432174 0.690408
v -0.098169 0.807309 0.493529
v -0.269384 0.432174 0.650350
v -0.192566 0.807309 0.464894
v -0.391085 0.432174 0.585300
v -0.279562 0.807309 0.418394
v -0.497757 0.432174 0.497757
v -0.355815 0.807309 0.355815
v -0.585300 0.432174 0.391085
v -0.418394 0.807309 0.279562
v -0.650350 0.432174 0.269384
v -0.464894 0.807309 0.192566
v -0.690408 0.432174 0.137331
v -0.493529 0.807309 0.098169
v -0.703934 0.432174 0.000000
v -0.503198 0.807309 -0.000000
v -0.690408 0.432174 -0.137331
v -0.493529 0.807309 -0.098169
v -0.650350 0.432174 -0.269384
v -0.464894 0.807309 -0.192566
v -0.585300 0.432174 -0.391085
v -0.418394 0.807309 -0.279562
v -0.497757 0.432174 -0.497757
v -0.355815 0.807309 -0.355815
v -0.391085 0.432174 -0.585300
v -0.279562 0.807309 -0.418394
v -0.269384 0.432174 -0.650350
v -0.192566 0.807309 -0.464894
v -0.137331 0.432174 -0.690408
v -0.098169 0.807309 -0.493529
v 0.000000 0.619741 -0.556167
v 0.108503 0.619741 -0.545481
v 0.212836 0.619741 -0.513832
v 0.308990 0.619741 -0.462437
v 0.393270 0.619741 -0.393270
v 0.462437 0.619741 -0.308990
v 0.513832 0.619741 -0.212836
v 0.545481 0.619741 -0.108503
v 0.556167 0.619741 0.000000
v 0.545481 0.619741 0.108503
v 0.513832 0.619741 0.212836
v 0.462437 0.619741 0.308990
v 0.393270 0.619741 0.393270
v 0.308990 0.619741 0.462437
v 0.212836 0.619741 0.513832
v 0.108503 0.619741 0.545481
v 0.000000 0.619741 0.556167
v -0.108503 0.619741 0.545481
v -0.212836 0.619741 0.513832
v -0.308990 0.619741 0.462437
v -0.393270 0.619741 0.393270
v -0.462437 0.619741 0.308990
v -0.513832 0.619741 0.212836
v -0.545481 0.619741 0.108503
v -0.556167 0.619741 0.000000
v -0.545481 0.619741 -0.108503
v -0.513832 0.619741 -0.212836
v -0.462437 0.619741 -0.308990
v -0.393270 0.619741 -0.393270
v -0.308990 0.619741 -0.462437
v -0.212836 0.619741 -0.513832
v -0.108503 0.619741 -0.545481
v 0.108503 0.807309 -0.545481
v 0.000000 0.807309 -0.556167
v 0.212836 0.807309 -0.513832
v 0.308990 0.807309 -0.462437
v 0.393270 0.807309 -0.393270
v 0.462437 0.807309 -0.308990
v 0.513832 0.807309 -0.212836
v 0.545481 0.807309 -0.108503
v 0.556167 0.807309 -0.000000
v 0.545481 0.807309 0.108503
v 0.513832 0.807309 0.212836
v 0.462437 0.807309 0.308990
v 0.393270 0.807309 0.393270
v 0.308990 0.807309 0.462437
v 0.212836 0.807309 0.513832
v 0.108503 0.807309 0.545481
v 0.000000 0.807309 0.556167
v -0.108503 0.807309 0.545481
v -0.212836 0.807309 0.513832
v -0.308990 0.807309 0.462437
v -0.393270 0.807309 0.393270
v -0.462437 0.807309 0.308990
v -0.513832 0.807309 0.212836
v -0.545481 0.807309 0.108503
v -0.556167 0.807309 -0.000000
v -0.545481 0.807309 -0.108503
v -0.513832 0.807309 -0.212836
v -0.462437 0.807309 -0.308990
v -0.393270 0.807309 -0.393270
v -0.308990 0.807309 -0.462437
v -0.212836 0.807309 -0.513832
v -0.108503 0.807309 -0.545481
vn 0.0980 -0.0000 -0.9952
vn 0.2903 -0.0000 -0.9569
vn 0.4714 -0.0000 -0.8819
vn 0.6344 -0.0000 -0.7730
vn 0.7730 -0.0000 -0.6344
vn 0.8819 -0.0000 -0.4714
vn 0.9569 -0.0000 -0.2903
vn 0.9952 -0.0000 -0.0980
vn 0.9952 -0.0000 0.0980
vn 0.9569 -0.0000 0.2903
vn 0.8819 -0.0000 0.4714
vn 0.7730 -0.0000 0.6344
vn 0.6344 -0.0000 0.7730
vn 0.4714 -0.0000 0.8819
vn 0.2903 -0.0000 0.9569
vn 0.0980 -0.0000 0.9952
vn -0.0980 -0.0000 0.9952
vn -0.2903 -0.0000 0.9569
vn -0.4714 -0.0000 0.8819
vn -0.6344 -0.0000 0.7730
vn -0.7730 -0.0000 0.6344
vn -0.8819 -0.0000 0.4714
vn -0.9569 -0.0000 0.2903
vn -0.9952 -0.0000 0.0980
vn -0.9952 -0.0000 -0.0980
vn -0.9569 -0.0000 -0.2903
vn -0.8819 -0.0000 -0.4714
vn -0.7730 -0.0000 -0.6344
vn -0.6344 -0.0000 -0.7730
vn -0.4714 -0.0000 -0.8819
vn -0.2903 -0.0000 -0.9569
vn -0.0980 -0.0000 -0.9952
vn -0.0000 -1.0000 -0.0000
vn -0.0771 0.6170 -0.7832
vn -0.2284 0.6170 -0.7531
vn -0.3710 0.6170 -0.6940
vn -0.4992 0.6170 -0.6083
vn -0.6083 0.6170 -0.4992
vn -0.6940 0.6170 -0.3710
vn -0.7531 0.6170 -0.2284
vn -0.7832 0.6170 -0.0771
vn -0.7832 0.6170 0.0771
vn -0.7531 0.6170 0.2284
vn -0.6940 0.6170 0.3710
vn -0.6083 0.6170 0.4992
vn -0.4992 0.6170 0.6083
vn -0.3710 0.6170 0.6940
vn -0.2284 0.6170 0.7531
vn -0.0771 0.6170 0.7832
vn 0.0771 0.6170 0.7832
vn 0.2284 0.6170 0.7531
vn 0.3710 0.6170 0.6940
vn 0.4992 0.6170 0.6083
vn 0.6083 0.6170 0.4992
vn 0.6940 0.6170 0.3710
vn 0.7531 0.6170 0.2284
vn 0.7832 0.6170 0.0771
vn 0.7832 0.6170 -0.0771
vn 0.7531 0.6170 -0.2284
vn 0.6940 0.6170 -0.3710
vn 0.6083 0.6170 -0.4992
vn 0.4992 0.6170 -0.6083
vn 0.3710 0.6170 -0.6940
vn 0.2284 0.6170 -0.7531
vn 0.0771 0.6170 -0.7832
vn -0.0000 1.0000 -0.0000
vt 1.000000 1.000000
vt 0.968750 0.750000
vt 1.000000 0.750000
vt 0.968750 1.000000
vt 0.937500 0.750000
vt 0.937500 1.000000
vt 0.906250 0.750000
vt 0.906250 1.000000
vt 0.875000 0.750000
vt 0.875000 1.000000
vt 0.843750 0.750000
vt 0.843750 1.000000
vt 0.812500 0.750000
vt 0.812500 1.000000
vt 0.781250 0.750000
vt 0.781250 1.000000
vt 0.750000 0.750000
vt 0.750000 1.000000
vt 0.718750 0.750000
vt 0.718750 1.000000
vt 0.687500 0.750000
vt 0.687500 1.000000
vt 0.656250 0.750000
vt 0.656250 1.000000
vt 0.625000 0.750000
vt 0.625000 1.000000
vt 0.593750 0.750000
vt 0.593750 1.000000
vt 0.562500 0.750000
vt 0.562500 1.000000
vt 0.531250 0.750000
vt 0.531250 1.000000
vt 0.500000 0.750000
vt 0.500000 1.000000
vt 0.468750 0.750000
vt 0.468750 1.000000
vt 0.437500 0.750000
vt 0.437500 1.000000
vt 0.406250 0.750000
vt 0.406250 1.000000
vt 0.375000 0.750000
vt 0.375000 1.000000
vt 0.343750 0.750000
vt 0.343750 1.000000
vt 0.312500 0.750000
vt 0.312500 1.000000
vt 0.281250 0.750000
vt 0.281250 1.000000
vt 0.250000 0.750000
vt 0.250000 1.000000
vt 0.218750 0.750000
vt 0.218750 1.000000
vt 0.187500 0.750000
vt 0.187500 1.000000
vt 0.156250 0.750000
vt 0.156250 1.000000
vt 0.125000 0.750000
vt 0.125000 1.000000
vt 0.093750 0.750000
vt 0.093750 1.000000
vt 0.062500 0.750000
vt 0.062500 1.000000
vt 0.031250 0.750000
vt 0.031250 1.000000
vt 0.000000 0.750000
vt 0.796822 0.014612
vt 0.514612 0.203178
vt 0.703178 0.485388
vt 0.000000 0.500000
vt 0.031250 0.500000
vt 0.062500 0.500000
vt 0.093750 0.500000
vt 0.125000 0.500000
vt 0.156250 0.500000
vt 0.187500 0.500000
vt 0.218750 0.500000
vt 0.250000 0.500000
vt 0.281250 0.500000
vt 0.312500 0.500000
vt 0.343750 0.500000
vt 0.375000 0.500000
vt 0.406250 0.500000
vt 0.437500 0.500000
vt 0.468750 0.500000
vt 0.500000 0.500000
vt 0.531250 0.500000
vt 0.562500 0.500000
vt 0.593750 0.500000
vt 0.625000 0.500000
vt 0.656250 0.500000
vt 0.687500 0.500000
vt 0.718750 0.500000
vt 0.750000 0.500000
vt 0.781250 0.500000
vt 0.812500 0.500000
vt 0.843750 0.500000
vt 0.875000 0.500000
vt 0.906250 0.500000
vt 0.937500 0.500000
vt 0.968750 0.500000
vt 1.000000 0.500000
vt 0.250000 0.467142
vt 0.296822 0.485388
vt 0.250000 0.490000
vt 0.333097 0.450613
vt 0.292362 0.462970
vt 0.383337 0.449553
vt 0.341844 0.471731
vt 0.403543 0.403543
vt 0.370638 0.430547
vt 0.430547 0.370638
vt 0.419706 0.419706
vt 0.450613 0.333097
vt 0.449553 0.383337
vt 0.462970 0.292362
vt 0.471731 0.341844
vt 0.467142 0.250000
vt 0.485388 0.296822
vt 0.485388 0.203178
vt 0.490000 0.250000
vt 0.450613 0.166903
vt 0.462970 0.207638
vt 0.449553 0.116663
vt 0.471731 0.158156
vt 0.403543 0.096457
vt 0.430547 0.129362
vt 0.370638 0.069453
vt 0.419706 0.080294
vt 0.333097 0.049387
vt 0.383337 0.050447
vt 0.292362 0.037030
vt 0.341844 0.028269
vt 0.250000 0.032858
vt 0.296822 0.014612
vt 0.203178 0.014612
vt 0.250000 0.010000
vt 0.166903 0.049387
vt 0.207638 0.037030
vt 0.116663 0.050447
vt 0.158156 0.028269
vt 0.096457 0.096457
vt 0.129362 0.069453
vt 0.069453 0.129362
vt 0.080294 0.080294
vt 0.049387 0.166903
vt 0.050447 0.116663
vt 0.037030 0.207638
vt 0.028269 0.158156
vt 0.032858 0.250000
vt 0.014612 0.203178
vt 0.014612 0.296822
vt 0.010000 0.250000
vt 0.049387 0.333097
vt 0.037030 0.292362
vt 0.050447 0.383337
vt 0.028269 0.341844
vt 0.096457 0.403543
vt 0.069453 0.370638
vt 0.129362 0.430547
vt 0.080294 0.419706
vt 0.166903 0.450613
vt 0.116663 0.449553
vt 0.207638 0.462970
vt 0.158156 0.471731
vt 0.203178 0.485388
vt 0.000000 1.000000
vt 0.750000 0.490000
vt 0.796822 0.485388
vt 0.841844 0.471731
vt 0.883337 0.449553
vt 0.919706 0.419706
vt 0.949553 0.383337
vt 0.971731 0.341844
vt 0.985388 0.296822
vt 0.990000 0.250000
vt 0.985388 0.203178
vt 0.971731 0.158156
vt 0.949553 0.116663
vt 0.919706 0.080294
vt 0.883337 0.050447
vt 0.841844 0.028269
vt 0.750000 0.010000
vt 0.703178 0.014612
vt 0.658156 0.028269
vt 0.616663 0.050447
vt 0.580294 0.080294
vt 0.550447 0.116663
vt 0.528269 0.158156
vt 0.510000 0.250000
vt 0.514612 0.296822
vt 0.528269 0.341844
vt 0.550447 0.383337
vt 0.580294 0.419706
vt 0.616663 0.449553
vt 0.658156 0.471731
vt 0.701472 1.013951
vt -0.010135 0.719194
vt 0.284622 0.007587
vt 0.386793 -0.023406
vt 0.493047 -0.033871
vt 0.599301 -0.023406
vt 0.701472 0.007588
vt 0.795633 0.057918
vt 0.878166 0.125651
vt 0.945899 0.208184
vt 0.996229 0.302345
vt 1.027222 0.404516
vt 1.037687 0.510769
vt 1.027222 0.617024
vt 0.996229 0.719194
vt 0.945899 0.813355
vt 0.878166 0.895888
vt 0.795633 0.963621
vt 0.599301 1.044944
vt 0.493047 1.055409
vt 0.386793 1.044944
vt 0.284622 1.013951
vt 0.190461 0.963621
vt 0.107928 0.895888
vt 0.040195 0.813355
vt -0.041128 0.617023
vt -0.051593 0.510769
vt -0.041128 0.404515
vt -0.010134 0.302345
vt 0.040196 0.208184
vt 0.107928 0.125651
vt 0.190461 0.057918
s 0
usemtl マテリアル.003
f 98/1/1 66/2/1 65/3/1
f 97/4/2 67/5/2 66/2/2
f 99/6/3 68/7/3 67/5/3
f 100/8/4 69/9/4 68/7/4
f 101/10/5 70/11/5 69/9/5
f 102/12/6 71/13/6 70/11/6
f 103/14/7 72/15/7 71/13/7
f 104/16/8 73/17/8 72/15/8
f 105/18/9 74/19/9 73/17/9
f 106/20/10 75/21/10 74/19/10
f 107/22/11 76/23/11 75/21/11
f 108/24/12 77/25/12 76/23/12
f 109/26/13 78/27/13 77/25/13
f 110/28/14 79/29/14 78/27/14
f 111/30/15 80/31/15 79/29/15
f 112/32/16 81/33/16 80/31/16
f 113/34/17 82/35/17 81/33/17
f 114/36/18 83/37/18 82/35/18
f 115/38/19 84/39/19 83/37/19
f 116/40/20 85/41/20 84/39/20
f 117/42/21 86/43/21 85/41/21
f 118/44/22 87/45/22 86/43/22
f 119/46/23 88/47/23 87/45/23
f 120/48/24 89/49/24 88/47/24
f 121/50/25 90/51/25 89/49/25
f 122/52/26 91/53/26 90/51/26
f 123/54/27 92/55/27 91/53/27
f 124/56/28 93/57/28 92/55/28
f 125/58/29 94/59/29 93/57/29
f 126/60/30 95/61/30 94/59/30
f 127/62/31 96/63/31 95/61/31
f 128/64/32 65/65/32 96/63/32
f 31/66/33 47/67/33 63/68/33
f 96/63/34 1/69/34 63/70/34
f 95/61/35 63/70/35 61/71/35
f 94/59/36 61/71/36 59/72/36
f 93/57/37 59/72/37 57/73/37
f 92/55/38 57/73/38 55/74/38
f 91/53/39 55/74/39 53/75/39
f 51/76/40 91/53/40 53/75/40
f 89/49/41 51/76/41 49/77/41
f 88/47/42 49/77/42 47/78/42
f 87/45/43 47/78/43 45/79/43
f 86/43/44 45/79/44 43/80/44
f 85/41/45 43/80/45 41/81/45
f 84/39/46 41/81/46 39/82/46
f 83/37/47 39/82/47 37/83/47
f 35/84/48 83/37/48 37/83/48
f 81/33/49 35/84/49 33/85/49
f 80/31/50 33/85/50 31/86/50
f 79/29/51 31/86/51 29/87/51
f 78/27/52 29/87/52 27/88/52
f 77/25/53 27/88/53 25/89/53
f 76/23/54 25/89/54 23/90/54
f 75/21/55 23/90/55 21/91/55
f 19/92/56 75/21/56 21/91/56
f 73/17/57 19/92/57 17/93/57
f 72/15/58 17/93/58 15/94/58
f 71/13/59 15/94/59 13/95/59
f 70/11/60 13/95/60 11/96/60
f 69/9/61 11/96/61 9/97/61
f 68/7/62 9/97/62 7/98/62
f 67/5/63 7/98/63 5/99/63
f 3/100/64 67/5/64 5/99/64
f 65/3/65 3/100/65 1/101/65
f 2/102/66 97/103/66 98/104/66
f 6/105/66 97/103/66 4/106/66
f 6/105/66 100/107/66 99/108/66
f 10/109/66 100/107/66 8/110/66
f 12/111/66 101/112/66 10/109/66
f 14/113/66 102/114/66 12/111/66
f 16/115/66 103/116/66 14/113/66
f 18/117/66 104/118/66 16/115/66
f 18/117/66 106/119/66 105/120/66
f 22/121/66 106/119/66 20/122/66
f 22/121/66 108/123/66 107/124/66
f 26/125/66 108/123/66 24/126/66
f 28/127/66 109/128/66 26/125/66
f 30/129/66 110/130/66 28/127/66
f 32/131/66 111/132/66 30/129/66
f 34/133/66 112/134/66 32/131/66
f 34/133/66 114/135/66 113/136/66
f 38/137/66 114/135/66 36/138/66
f 38/137/66 116/139/66 115/140/66
f 42/141/66 116/139/66 40/142/66
f 44/143/66 117/144/66 42/141/66
f 46/145/66 118/146/66 44/143/66
f 48/147/66 119/148/66 46/145/66
f 50/149/66 120/150/66 48/147/66
f 50/149/66 122/151/66 121/152/66
f 54/153/66 122/151/66 52/154/66
f 54/153/66 124/155/66 123/156/66
f 58/157/66 124/155/66 56/158/66
f 60/159/66 125/160/66 58/157/66
f 62/161/66 126/162/66 60/159/66
f 64/163/66 127/164/66 62/161/66
f 2/102/66 128/165/66 64/163/66
f 98/1/1 97/4/1 66/2/1
f 97/4/2 99/6/2 67/5/2
f 99/6/3 100/8/3 68/7/3
f 100/8/4 101/10/4 69/9/4
f 101/10/5 102/12/5 70/11/5
f 102/12/6 103/14/6 71/13/6
f 103/14/7 104/16/7 72/15/7
f 104/16/8 105/18/8 73/17/8
f 105/18/9 106/20/9 74/19/9
f 106/20/10 107/22/10 75/21/10
f 107/22/11 108/24/11 76/23/11
f 108/24/12 109/26/12 77/25/12
f 109/26/13 110/28/13 78/27/13
f 110/28/14 111/30/14 79/29/14
f 111/30/15 112/32/15 80/31/15
f 112/32/16 113/34/16 81/33/16
f 113/34/17 114/36/17 82/35/17
f 114/36/18 115/38/18 83/37/18
f 115/38/19 116/40/19 84/39/19
f 116/40/20 117/42/20 85/41/20
f 117/42/21 118/44/21 86/43/21
f 118/44/22 119/46/22 87/45/22
f 119/46/23 120/48/23 88/47/23
f 120/48/24 121/50/24 89/49/24
f 121/50/25 122/52/25 90/51/25
f 122/52/26 123/54/26 91/53/26
f 123/54/27 124/56/27 92/55/27
f 124/56/28 125/58/28 93/57/28
f 125/58/29 126/60/29 94/59/29
f 126/60/30 127/62/30 95/61/30
f 127/62/31 128/64/31 96/63/31
f 128/64/32 98/166/32 65/65/32
f 63/68/33 1/167/33 3/168/33
f 3/168/33 5/169/33 7/170/33
f 7/170/33 9/171/33 11/172/33
f 11/172/33 13/173/33 15/174/33
f 15/174/33 17/175/33 19/176/33
f 19/176/33 21/177/33 23/178/33
f 23/178/33 25/179/33 27/180/33
f 27/180/33 29/181/33 31/66/33
f 31/66/33 33/182/33 35/183/33
f 35/183/33 37/184/33 39/185/33
f 39/185/33 41/186/33 43/187/33
f 43/187/33 45/188/33 47/67/33
f 47/67/33 49/189/33 51/190/33
f 51/190/33 53/191/33 55/192/33
f 55/192/33 57/193/33 59/194/33
f 59/194/33 61/195/33 63/68/33
f 63/68/33 3/168/33 7/170/33
f 7/170/33 11/172/33 15/174/33
f 15/174/33 19/176/33 23/178/33
f 23/178/33 27/180/33 31/66/33
f 31/66/33 35/183/33 39/185/33
f 39/185/33 43/187/33 47/67/33
f 47/67/33 51/190/33 55/192/33
f 55/192/33 59/194/33 63/68/33
f 63/68/33 7/170/33 15/174/33
f 15/174/33 23/178/33 31/66/33
f 31/66/33 39/185/33 47/67/33
f 47/67/33 55/192/33 63/68/33
f 63/68/33 15/174/33 31/66/33
f 96/63/34 65/65/34 1/69/34
f 95/61/35 96/63/35 63/70/35
f 94/59/36 95/61/36 61/71/36
f 93/57/37 94/59/37 59/72/37
f 92/55/38 93/57/38 57/73/38
f 91/53/39 92/55/39 55/74/39
f 51/76/40 90/51/40 91/53/40
f 89/49/41 90/51/41 51/76/41
f 88/47/42 89/49/42 49/77/42
f 87/45/43 88/47/43 47/78/43
f 86/43/44 87/45/44 45/79/44
f 85/41/45 86/43/45 43/80/45
f 84/39/46 85/41/46 41/81/46
f 83/37/47 84/39/47 39/82/47
f 35/84/48 82/35/48 83/37/48
f 81/33/49 82/35/49 35/84/49
f 80/31/50 81/33/50 33/85/50
f 79/29/51 80/31/51 31/86/51
f 78/27/52 79/29/52 29/87/52
f 77/25/53 78/27/53 27/88/53
f 76/23/54 77/25/54 25/89/54
f 75/21/55 76/23/55 23/90/55
f 19/92/56 74/19/56 75/21/56
f 73/17/57 74/19/57 19/92/57
f 72/15/58 73/17/58 17/93/58
f 71/13/59 72/15/59 15/94/59
f 70/11/60 71/13/60 13/95/60
f 69/9/61 70/11/61 11/96/61
f 68/7/62 69/9/62 9/97/62
f 67/5/63 68/7/63 7/98/63
f 3/100/64 66/2/64 67/5/64
f 65/3/65 66/2/65 3/100/65
f 2/102/66 4/106/66 97/103/66
f 6/105/66 99/108/66 97/103/66
f 6/105/66 8/110/66 100/107/66
f 10/109/66 101/112/66 100/107/66
f 12/111/66 102/114/66 101/112/66
f 14/113/66 103/116/66 102/114/66
f 16/115/66 104/118/66 103/116/66
f 18/117/66 105/120/66 104/118/66
f 18/117/66 20/122/66 106/119/66
f 22/121/66 107/124/66 106/119/66
f 22/121/66 24/126/66 108/123/66
f 26/125/66 109/128/66 108/123/66
f 28/127/66 110/130/66 109/128/66
f 30/129/66 111/132/66 110/130/66
f 32/131/66 112/134/66 111/132/66
f 34/133/66 113/136/66 112/134/66
f 34/133/66 36/138/66 114/135/66
f 38/137/66 115/140/66 114/135/66
f 38/137/66 40/142/66 116/139/66
f 42/141/66 117/144/66 116/139/66
f 44/143/66 118/146/66 117/144/66
f 46/145/66 119/148/66 118/146/66
f 48/147/66 120/150/66 119/148/66
f 50/149/66 121/152/66 120/150/66
f 50/149/66 52/154/66 122/151/66
f 54/153/66 123/156/66 122/151/66
f 54/153/66 56/158/66 124/155/66
f 58/157/66 125/160/66 124/155/66
f 60/159/66 126/162/66 125/160/66
f 62/161/66 127/164/66 126/162/66
f 64/163/66 128/165/66 127/164/66
f 2/102/66 98/104/66 128/165/66
usemtl マテリアル.004
f 38/196/66 22/197/66 6/198/66
f 6/198/66 4/199/66 2/200/66
f 2/200/66 64/201/66 62/202/66
f 62/202/66 60/203/66 58/204/66
f 58/204/66 56/205/66 54/206/66
f 54/206/66 52/207/66 50/208/66
f 50/208/66 48/209/66 46/210/66
f 46/210/66 44/211/66 42/212/66
f 42/212/66 40/213/66 38/196/66
f 38/196/66 36/214/66 34/215/66
f 34/215/66 32/216/66 30/217/66
f 30/217/66 28/218/66 26/219/66
f 26/219/66 24/220/66 22/197/66
f 22/197/66 20/221/66 18/222/66
f 18/222/66 16/223/66 14/224/66
f 14/224/66 12/225/66 10/226/66
f 10/226/66 8/227/66 6/198/66
f 6/198/66 2/200/66 62/202/66
f 62/202/66 58/204/66 54/206/66
f 54/206/66 50/208/66 46/210/66
f 46/210/66 42/212/66 38/196/66
f 38/196/66 34/215/66 30/217/66
f 30/217/66 26/219/66 22/197/66
f 22/197/66 18/222/66 14/224/66
f 14/224/66 10/226/66 6/198/66
f 6/198/66 62/202/66 54/206/66
f 54/206/66 46/210/66 38/196/66
f 38/196/66 30/217/66 22/197/66
f 22/197/66 14/224/66 6/198/66
f 6/198/66 54/206/66 38/196/66
