# Blender 4.2.3 LTS
# www.blender.org
mtllib WarpTrap.mtl
o 円柱
v -0.000000 -0.582349 -1.000000
v 0.000000 0.733482 -0.837439
v 0.866025 -0.582349 -0.500000
v 0.725243 0.733482 -0.418719
v 0.866025 -0.582348 0.500000
v 0.725243 0.733482 0.418719
v -0.000000 -0.582348 1.000000
v 0.000000 0.733482 0.837439
v -0.866025 -0.582348 0.500000
v -0.725243 0.733482 0.418719
v -0.866025 -0.582348 -0.500000
v -0.725243 0.733482 -0.418719
v 0.866025 0.582348 -0.500000
v 0.000000 0.582348 -1.000000
v 0.866025 0.582348 0.500000
v 0.000000 0.582349 1.000000
v -0.866025 0.582349 0.500000
v -0.866025 0.582348 -0.500000
vn 0.5000 -0.0000 -0.8660
vn 1.0000 -0.0000 -0.0000
vn 0.5000 -0.0000 0.8660
vn -0.5000 -0.0000 0.8660
vn -0.0000 1.0000 -0.0000
vn -1.0000 -0.0000 -0.0000
vn -0.5000 -0.0000 -0.8660
vn -0.0000 -1.0000 -0.0000
vn 0.3659 0.6816 -0.6337
vn 0.7317 0.6816 -0.0000
vn 0.3659 0.6816 0.6337
vn -0.3659 0.6816 0.6337
vn -0.7317 0.6816 -0.0000
vn -0.3659 0.6816 -0.6337
vt 1.000000 1.000000
vt 0.833333 0.500000
vt 1.000000 0.500000
vt 0.833333 1.000000
vt 0.666667 0.500000
vt 0.500000 1.000000
vt 0.500000 0.500000
vt 0.333333 1.000000
vt 0.333333 0.500000
vt 0.515765 0.886345
vt 0.170359 0.288085
vt 0.861170 0.288085
vt 0.166667 0.500000
vt 0.166667 1.000000
vt -0.000000 0.500000
vt 0.957846 0.370000
vt 0.750000 0.010000
vt 0.542154 0.370000
vt 0.928219 0.725636
vt 0.515765 0.963767
vt 0.861170 0.686925
vt 0.515765 0.088666
vt 0.928219 0.249375
vt 0.103310 0.249375
vt 0.515765 0.011244
vt 0.170359 0.686925
vt 0.103310 0.725636
vt 0.666667 1.000000
vt -0.000000 1.000000
vt 0.750000 0.490000
vt 0.957846 0.130000
vt 0.542154 0.130000
s 1
usemtl マテリアル.001
f 14/1/1 3/2/1 1/3/1
f 13/4/2 5/5/2 3/2/2
f 5/5/3 16/6/3 7/7/3
f 7/7/4 17/8/4 9/9/4
f 17/8/6 11/13/6 9/9/6
f 18/14/7 1/15/7 11/13/7
f 3/16/8 7/17/8 11/18/8
f 2/10/9 13/19/9 14/20/9
f 6/12/10 13/19/10 4/21/10
f 8/22/11 15/23/11 6/12/11
f 8/22/12 17/24/12 16/25/12
f 12/26/13 17/24/13 10/11/13
f 12/26/14 14/20/14 18/27/14
f 14/1/1 13/4/1 3/2/1
f 13/4/2 15/28/2 5/5/2
f 5/5/3 15/28/3 16/6/3
f 7/7/4 16/6/4 17/8/4
f 17/8/6 18/14/6 11/13/6
f 18/14/7 14/29/7 1/15/7
f 11/18/8 1/30/8 3/16/8
f 3/16/8 5/31/8 7/17/8
f 7/17/8 9/32/8 11/18/8
f 2/10/9 4/21/9 13/19/9
f 6/12/10 15/23/10 13/19/10
f 8/22/11 16/25/11 15/23/11
f 8/22/12 10/11/12 17/24/12
f 12/26/13 18/27/13 17/24/13
f 12/26/14 2/10/14 14/20/14
usemtl マテリアル.004
f 2/10/5 10/11/5 6/12/5
f 6/12/5 4/21/5 2/10/5
f 2/10/5 12/26/5 10/11/5
f 10/11/5 8/22/5 6/12/5
