# Blender 4.2.3 LTS
# www.blender.org
mtllib Floor.mtl
o Cube
v 0.924938 0.024206 -0.924938
v 0.924938 -0.024207 -0.924938
v 0.924938 0.024207 0.924938
v 0.924938 -0.024206 0.924938
v -0.924938 0.024206 -0.924938
v -0.924938 -0.024207 -0.924938
v -0.924938 0.024207 0.924938
v -0.924938 -0.024206 0.924938
v 1.000000 0.024206 -1.000000
v 1.000000 0.024207 1.000000
v -1.000000 0.024206 -1.000000
v -1.000000 0.024207 1.000000
v 1.000000 -0.024206 1.000000
v -1.000000 -0.024206 1.000000
v -1.000000 -0.024207 -1.000000
v 1.000000 -0.024207 -1.000000
vn -0.0000 1.0000 -0.0000
vn -0.0000 -0.0000 1.0000
vn -1.0000 -0.0000 -0.0000
vn -0.0000 -1.0000 -0.0000
vn 1.0000 -0.0000 -0.0000
vn -0.0000 -0.0000 -1.0000
vt 0.865617 0.509383
vt 0.634383 0.740617
vt 0.634383 0.509383
vt 0.625000 0.750000
vt 0.375000 1.000000
vt 0.375000 0.750000
vt 0.625000 0.000000
vt 0.375000 0.250000
vt 0.375000 0.000000
vt 0.365617 0.509383
vt 0.134383 0.740617
vt 0.134383 0.509383
vt 0.625000 0.500000
vt 0.375000 0.500000
vt 0.625000 0.250000
vt 0.875000 0.500000
vt 0.865617 0.740617
vt 0.875000 0.750000
vt 0.125000 0.750000
vt 0.125000 0.500000
vt 0.365617 0.740617
vt 0.625000 1.000000
s 0
usemtl Material.002
f 5/1/1 3/2/1 1/3/1
f 10/4/2 14/5/2 13/6/2
f 12/7/3 15/8/3 14/9/3
f 2/10/4 8/11/4 6/12/4
f 9/13/5 13/6/5 16/14/5
f 11/15/6 16/14/6 15/8/6
f 1/3/1 10/4/1 9/13/1
f 5/1/1 9/13/1 11/16/1
f 7/17/1 11/16/1 12/18/1
f 3/2/1 12/18/1 10/4/1
f 8/11/4 13/6/4 14/19/4
f 6/12/4 14/19/4 15/20/4
f 2/10/4 15/20/4 16/14/4
f 4/21/4 16/14/4 13/6/4
f 5/1/1 7/17/1 3/2/1
f 10/4/2 12/22/2 14/5/2
f 12/7/3 11/15/3 15/8/3
f 2/10/4 4/21/4 8/11/4
f 9/13/5 10/4/5 13/6/5
f 11/15/6 9/13/6 16/14/6
f 1/3/1 3/2/1 10/4/1
f 5/1/1 1/3/1 9/13/1
f 7/17/1 5/1/1 11/16/1
f 3/2/1 7/17/1 12/18/1
f 8/11/4 4/21/4 13/6/4
f 6/12/4 8/11/4 14/19/4
f 2/10/4 6/12/4 15/20/4
f 4/21/4 2/10/4 16/14/4
