# Blender 4.2.3 LTS
# www.blender.org
mtllib Stair.mtl
o 立方体
v -1.000000 -0.317489 -1.000000
v -1.000000 0.038670 -1.000000
v 1.000000 -0.317489 -1.000000
v 1.000000 0.038670 -1.000000
v -1.000000 -0.317489 1.000000
v -1.000000 0.038670 1.000000
v 1.000000 -0.317489 1.000000
v 1.000000 0.038670 1.000000
v -0.000000 -0.317489 -1.000000
v -0.000000 0.038670 -1.000000
v 0.000000 -0.317489 1.000000
v 0.000000 0.038670 1.000000
v 0.500000 0.038670 -1.000000
v 0.500000 -0.317489 1.000000
v 0.500000 -0.317489 -1.000000
v 0.500000 0.038670 1.000000
v -0.500000 -0.317489 -1.000000
v -0.500000 0.038670 1.000000
v -0.500000 0.038670 -1.000000
v -0.500000 -0.317489 1.000000
v -0.500000 0.422979 1.000000
v -1.000000 0.422979 1.000000
v -1.000000 0.422979 -1.000000
v -0.500000 0.422979 -1.000000
v -0.000000 0.422979 -1.000000
v 0.500000 0.422979 1.000000
v 0.000000 0.422979 1.000000
v 0.500000 0.422979 -1.000000
v -0.500000 0.753453 1.000000
v -1.000000 0.753453 1.000000
v -1.000000 0.753453 -1.000000
v -0.500000 0.753453 -1.000000
v -0.000000 0.753453 -1.000000
v 0.000000 0.753453 1.000000
v -0.500000 1.050863 1.000000
v -1.000000 1.050863 1.000000
v -1.000000 1.050863 -1.000000
v -0.500000 1.050863 -1.000000
vn -0.0000 -0.0000 -1.0000
vn 1.0000 -0.0000 -0.0000
vn -0.0000 -0.0000 1.0000
vn -1.0000 -0.0000 -0.0000
vn -0.0000 -1.0000 -0.0000
vn -0.0000 1.0000 -0.0000
vt 0.625000 0.187500
vt 0.375000 0.250000
vt 0.375000 0.187500
vt 0.625000 0.250000
vt 0.375000 0.500000
vt 0.625000 0.687500
vt 0.375000 0.750000
vt 0.375000 0.687500
vt 0.625000 0.750000
vt 0.375000 1.000000
vt 0.125000 0.750000
vt 0.125000 0.687500
vt 0.625000 0.000000
vt 0.625000 0.062500
vt 0.625000 0.625000
vt 0.375000 0.562500
vt 0.125000 0.625000
vt 0.125000 0.562500
vt 0.625000 0.562500
vt 0.375000 0.625000
vt 0.375000 0.125000
vt 0.375000 0.062500
vt 0.625000 0.500000
vt 0.125000 0.500000
vt 0.875000 0.500000
vt 0.625000 0.125000
vt 0.375000 0.000000
vt 0.875000 0.562500
vt 0.875000 0.625000
vt 0.625000 1.000000
vt 0.875000 0.687500
vt 0.875000 0.750000
s 0
usemtl マテリアル
f 13/1/1 3/2/1 15/3/1
f 4/4/2 7/5/2 3/2/2
f 18/6/3 5/7/3 20/8/3
f 6/9/4 1/10/4 5/7/4
f 20/8/5 1/11/5 17/12/5
f 2/13/1 24/14/1 19/14/1
f 12/15/3 21/6/3 18/6/3
f 14/16/5 9/17/5 15/18/5
f 16/19/3 11/20/3 14/16/3
f 19/14/1 9/21/1 17/22/1
f 8/23/3 14/16/3 7/5/3
f 7/5/5 15/18/5 3/24/5
f 4/25/6 16/19/6 8/23/6
f 10/26/1 15/3/1 9/21/1
f 2/13/1 17/22/1 1/27/1
f 10/26/1 28/1/1 13/1/1
f 11/20/5 17/12/5 9/17/5
f 12/15/3 20/8/3 11/20/3
f 24/14/1 33/26/1 25/26/1
f 28/28/6 27/15/6 26/19/6
f 25/29/2 34/15/2 27/15/2
f 18/6/3 22/9/3 6/9/3
f 13/28/2 26/19/2 16/19/2
f 16/19/3 27/15/3 12/15/3
f 19/14/1 25/26/1 10/26/1
f 6/9/4 23/30/4 2/30/4
f 30/9/4 37/30/4 31/30/4
f 33/29/6 29/6/6 34/15/6
f 21/6/3 30/9/3 22/9/3
f 27/15/3 29/6/3 21/6/3
f 22/9/4 31/30/4 23/30/4
f 23/13/1 32/14/1 24/14/1
f 38/31/6 36/9/6 35/6/6
f 32/31/2 35/6/2 29/6/2
f 29/6/3 36/9/3 30/9/3
f 31/13/1 38/14/1 32/14/1
f 13/1/1 4/4/1 3/2/1
f 4/4/2 8/23/2 7/5/2
f 18/6/3 6/9/3 5/7/3
f 6/9/4 2/30/4 1/10/4
f 20/8/5 5/7/5 1/11/5
f 2/13/1 23/13/1 24/14/1
f 12/15/3 27/15/3 21/6/3
f 14/16/5 11/20/5 9/17/5
f 16/19/3 12/15/3 11/20/3
f 19/14/1 10/26/1 9/21/1
f 8/23/3 16/19/3 14/16/3
f 7/5/5 14/16/5 15/18/5
f 4/25/6 13/28/6 16/19/6
f 10/26/1 13/1/1 15/3/1
f 2/13/1 19/14/1 17/22/1
f 10/26/1 25/26/1 28/1/1
f 11/20/5 20/8/5 17/12/5
f 12/15/3 18/6/3 20/8/3
f 24/14/1 32/14/1 33/26/1
f 28/28/6 25/29/6 27/15/6
f 25/29/2 33/29/2 34/15/2
f 18/6/3 21/6/3 22/9/3
f 13/28/2 28/28/2 26/19/2
f 16/19/3 26/19/3 27/15/3
f 19/14/1 24/14/1 25/26/1
f 6/9/4 22/9/4 23/30/4
f 30/9/4 36/9/4 37/30/4
f 33/29/6 32/31/6 29/6/6
f 21/6/3 29/6/3 30/9/3
f 27/15/3 34/15/3 29/6/3
f 22/9/4 30/9/4 31/30/4
f 23/13/1 31/13/1 32/14/1
f 38/31/6 37/32/6 36/9/6
f 32/31/2 38/31/2 35/6/2
f 29/6/3 35/6/3 36/9/3
f 31/13/1 37/13/1 38/14/1
