# Blender 4.2.3 LTS
# www.blender.org
mtllib Wall.mtl
o Cube
v 0.924938 1.000000 -0.924938
v 0.924938 -1.000000 -0.924938
v 0.924938 1.000000 0.924938
v 0.924938 -1.000000 0.924938
v -0.924938 1.000000 -0.924938
v -0.924938 -1.000000 -0.924938
v -0.924938 1.000000 0.924938
v -0.924938 -1.000000 0.924938
v 1.000000 1.000000 -1.000000
v 1.000000 1.000000 1.000000
v -1.000000 1.000000 -1.000000
v -1.000000 1.000000 1.000000
v 1.000000 -1.000000 1.000000
v -1.000000 -1.000000 1.000000
v -1.000000 -1.000000 -1.000000
v 1.000000 -1.000000 -1.000000
vn -0.0000 1.0000 -0.0000
vn -0.0000 -0.0000 1.0000
vn -1.0000 -0.0000 -0.0000
vn -0.0000 -1.0000 -0.0000
vn 1.0000 -0.0000 -0.0000
vn -0.0000 -0.0000 -1.0000
vt 0.634383 0.509383
vt 0.865617 0.509383
vt 0.865617 0.740617
vt 0.634383 0.740617
vt 0.375000 0.750000
vt 0.625000 0.750000
vt 0.625000 1.000000
vt 0.375000 1.000000
vt 0.375000 0.000000
vt 0.625000 0.000000
vt 0.625000 0.250000
vt 0.375000 0.250000
vt 0.134383 0.509383
vt 0.365617 0.509383
vt 0.365617 0.740617
vt 0.134383 0.740617
vt 0.375000 0.500000
vt 0.625000 0.500000
vt 0.875000 0.500000
vt 0.875000 0.750000
vt 0.125000 0.750000
vt 0.125000 0.500000
s 0
usemtl Material.002
f 1/1/1 5/2/1 7/3/1 3/4/1
f 13/5/2 10/6/2 12/7/2 14/8/2
f 14/9/3 12/10/3 11/11/3 15/12/3
f 6/13/4 2/14/4 4/15/4 8/16/4
f 16/17/5 9/18/5 10/6/5 13/5/5
f 15/12/6 11/11/6 9/18/6 16/17/6
usemtl マテリアル
f 1/1/1 3/4/1 10/6/1 9/18/1
f 5/2/1 1/1/1 9/18/1 11/19/1
f 7/3/1 5/2/1 11/19/1 12/20/1
f 3/4/1 7/3/1 12/20/1 10/6/1
f 8/16/4 4/15/4 13/5/4 14/21/4
f 6/13/4 8/16/4 14/21/4 15/22/4
f 2/14/4 6/13/4 15/22/4 16/17/4
f 4/15/4 2/14/4 16/17/4 13/5/4
